<svg width="279" height="102" viewBox="0 0 279 102" fill="none" xmlns="http://www.w3.org/2000/svg">
<path d="M7.14 80V21.095H17.34V80H7.14ZM31.7973 80V37.16C33.7806 36.5933 36.3306 36.055 39.4473 35.545C42.6206 34.9783 46.134 34.695 49.9873 34.695C54.8606 34.695 58.629 35.545 61.2923 37.245C64.0123 38.945 65.9106 41.325 66.9873 44.385C68.1206 47.445 68.6873 50.9867 68.6873 55.01V80H58.9123V56.71C58.9123 53.3667 58.6006 50.7033 57.9773 48.72C57.4106 46.7367 56.419 45.2917 55.0023 44.385C53.6423 43.4783 51.6873 43.025 49.1373 43.025C47.5506 43.025 46.049 43.1383 44.6323 43.365C43.2723 43.535 42.2523 43.6767 41.5723 43.79V80H31.7973ZM102.352 81.105C97.7053 81.105 93.682 80.17 90.282 78.3C86.9386 76.43 84.332 73.7667 82.462 70.31C80.6486 66.8533 79.742 62.745 79.742 57.985C79.742 53.2817 80.5353 49.2017 82.122 45.745C83.7086 42.2317 85.9753 39.5117 88.922 37.585C91.9253 35.6583 95.5236 34.695 99.717 34.695C101.927 34.695 103.882 34.9783 105.582 35.545C107.282 36.055 108.727 36.65 109.917 37.33V15.655L119.692 14.04V78.555C118.389 79.0083 116.802 79.4333 114.932 79.83C113.062 80.17 111.05 80.4533 108.897 80.68C106.8 80.9633 104.619 81.105 102.352 81.105ZM102.437 72.605C104.194 72.605 105.695 72.5483 106.942 72.435C108.245 72.265 109.237 72.095 109.917 71.925V45.745C109.067 45.065 107.82 44.4417 106.177 43.875C104.59 43.3083 102.89 43.025 101.077 43.025C99.037 43.025 97.3086 43.365 95.892 44.045C94.4753 44.725 93.3136 45.7167 92.407 47.02C91.5003 48.3233 90.8203 49.8817 90.367 51.695C89.9703 53.4517 89.772 55.435 89.772 57.645C89.772 60.705 90.282 63.3683 91.302 65.635C92.322 67.9017 93.767 69.63 95.637 70.82C97.5636 72.01 99.8303 72.605 102.437 72.605ZM195.123 81.105C190.08 81.105 185.915 80.1133 182.628 78.13C179.342 76.09 176.877 73.3133 175.233 69.8C173.647 66.2867 172.853 62.2917 172.853 57.815C172.853 53.395 173.732 49.4283 175.488 45.915C177.245 42.4017 179.738 39.625 182.968 37.585C186.255 35.545 190.193 34.525 194.783 34.525C197.107 34.525 199.288 34.7233 201.328 35.12C203.368 35.5167 205.182 36.0833 206.768 36.82L204.558 44.725C203.425 44.215 202.15 43.79 200.733 43.45C199.317 43.11 197.588 42.94 195.548 42.94C191.355 42.94 188.182 44.2717 186.028 46.935C183.932 49.5983 182.883 53.225 182.883 57.815C182.883 60.8183 183.308 63.425 184.158 65.635C185.065 67.845 186.482 69.5733 188.408 70.82C190.392 72.01 193.027 72.605 196.313 72.605C198.127 72.605 199.883 72.4067 201.583 72.01C203.34 71.6133 204.785 71.16 205.918 70.65L207.533 78.725C206.23 79.3483 204.473 79.8867 202.263 80.34C200.053 80.85 197.673 81.105 195.123 81.105Z" fill="#64C4DA"/>
<path d="M230.885 80.935C227.315 80.935 224.17 80.4817 221.45 79.575C218.787 78.6117 216.69 77.0817 215.16 74.985C213.687 72.8883 212.95 70.1117 212.95 66.655C212.95 63.255 213.772 60.535 215.415 58.495C217.115 56.455 219.382 55.01 222.215 54.16C225.105 53.2533 228.222 52.8 231.565 52.8C233.209 52.8 234.767 52.9133 236.24 53.14C237.77 53.31 238.847 53.5083 239.47 53.735V51.95C239.47 50.25 239.187 48.72 238.62 47.36C238.11 45.9433 237.175 44.81 235.815 43.96C234.455 43.11 232.5 42.685 229.95 42.685C227.344 42.685 225.105 42.8833 223.235 43.28C221.365 43.6767 219.835 44.0733 218.645 44.47L217.37 36.48C218.617 36.0267 220.459 35.6017 222.895 35.205C225.332 34.7517 228.024 34.525 230.97 34.525C235.504 34.525 239.074 35.2617 241.68 36.735C244.287 38.1517 246.129 40.1633 247.205 42.77C248.339 45.3767 248.905 48.4083 248.905 51.865V78.81C247.375 79.15 245.024 79.575 241.85 80.085C238.734 80.6517 235.079 80.935 230.885 80.935ZM231.735 73.2C233.322 73.2 234.795 73.1433 236.155 73.03C237.515 72.9167 238.62 72.775 239.47 72.605V60.62C238.904 60.45 238.025 60.28 236.835 60.11C235.702 59.8833 234.399 59.77 232.925 59.77C231.225 59.77 229.582 59.94 227.995 60.28C226.465 60.62 225.19 61.2717 224.17 62.235C223.15 63.1417 222.64 64.53 222.64 66.4C222.64 68.95 223.462 70.735 225.105 71.755C226.749 72.7183 228.959 73.2 231.735 73.2ZM262.264 80V35.63H272.039V80H262.264ZM264.049 30.785L259.459 26.365L272.124 13.02L278.329 18.97L264.049 30.785Z" fill="#FC6A05"/>
<path d="M148.5 31C138.272 31 130 38.6685 130 48.15C130 61.0125 148.5 80 148.5 80C148.5 80 167 61.0125 167 48.15C167 38.6685 158.728 31 148.5 31ZM148.5 54.275C144.853 54.275 141.893 51.531 141.893 48.15C141.893 44.769 144.853 42.025 148.5 42.025C152.147 42.025 155.107 44.769 155.107 48.15C155.107 51.531 152.147 54.275 148.5 54.275Z" fill="#E21584"/>
</svg>
